<svg width="1434" height="505" viewBox="0 0 1434 505" fill="none" xmlns="http://www.w3.org/2000/svg">
<path d="M1029.72 141.933C1029.02 141.933 1028.44 141.279 1028.44 140.473C1028.44 139.668 1029.02 139.014 1029.72 139.014C1030.43 139.014 1031.01 139.668 1031.01 140.473C1031.01 141.279 1030.43 141.933 1029.72 141.933Z" fill="white"/>
<path d="M989.691 138.048C989.691 138.575 990.078 139.015 990.552 139.015C991.027 139.015 991.413 138.575 991.413 138.048C991.413 137.52 991.027 137.081 990.552 137.081C990.078 137.081 989.691 137.52 989.691 138.048Z" fill="white"/>
<path d="M1012.36 308.491C1011.73 308.14 1010.96 308.438 1010.64 309.159C1010.32 309.88 1010.59 310.759 1011.24 311.111C1011.89 311.462 1012.64 311.163 1012.96 310.443C1013.28 309.722 1013.01 308.843 1012.36 308.491Z" fill="white"/>
<path d="M981.854 176.426C981.433 176.198 980.905 176.391 980.695 176.866C980.484 177.341 980.659 177.921 981.081 178.167C981.503 178.395 982.03 178.202 982.241 177.727C982.452 177.253 982.276 176.673 981.854 176.426Z" fill="white"/>
<path d="M1161.77 283.617C1160.77 283.846 1160.1 284.936 1160.31 286.079C1160.5 287.221 1161.49 287.942 1162.49 287.731C1163.49 287.503 1164.16 286.413 1163.95 285.27C1163.75 284.145 1162.77 283.406 1161.77 283.617Z" fill="white"/>
<g opacity="0.64">
<path d="M1394.13 230.483C1394.13 230.835 1394.37 231.116 1394.69 231.116C1395.01 231.116 1395.25 230.835 1395.25 230.483C1395.25 230.132 1395.01 229.85 1394.69 229.85C1394.37 229.85 1394.13 230.132 1394.13 230.483Z" fill="white"/>
<path d="M1371.19 201.986C1371.19 202.214 1371.36 202.408 1371.56 202.408C1371.75 202.408 1371.93 202.214 1371.93 201.986C1371.93 201.757 1371.75 201.564 1371.56 201.564C1371.36 201.564 1371.19 201.757 1371.19 201.986Z" fill="white"/>
<path d="M1365.61 262.692C1365.33 262.534 1365 262.675 1364.86 262.974C1364.72 263.272 1364.84 263.659 1365.12 263.817C1365.4 263.976 1365.74 263.835 1365.88 263.536C1366.02 263.22 1365.9 262.85 1365.61 262.692Z" fill="white"/>
<path d="M1311.79 210.759C1311.6 210.653 1311.39 210.759 1311.3 210.952C1311.21 211.163 1311.3 211.409 1311.48 211.515C1311.67 211.62 1311.88 211.515 1311.97 211.321C1312.06 211.128 1311.97 210.864 1311.79 210.759Z" fill="white"/>
<path d="M1432.54 260.62C1432.1 260.726 1431.82 261.2 1431.9 261.693C1431.99 262.185 1432.41 262.501 1432.85 262.413C1433.29 262.308 1433.57 261.833 1433.49 261.341C1433.4 260.849 1432.98 260.532 1432.54 260.62Z" fill="white"/>
</g>
<g opacity="0.64">
<path d="M1056.39 234.303C1056.45 233.952 1056.24 233.635 1055.94 233.565C1055.64 233.512 1055.34 233.741 1055.29 234.075C1055.23 234.427 1055.44 234.743 1055.74 234.813C1056.04 234.884 1056.34 234.638 1056.39 234.303Z" fill="white"/>
<path d="M1072.83 238.557C1072.86 238.329 1072.72 238.118 1072.53 238.065C1072.32 238.03 1072.13 238.188 1072.09 238.417C1072.06 238.645 1072.2 238.856 1072.39 238.909C1072.6 238.944 1072.79 238.786 1072.83 238.557Z" fill="white"/>
<path d="M1114.83 238.274C1115.29 238.643 1115.92 238.52 1116.24 238.01C1116.57 237.5 1116.47 236.797 1116.01 236.428C1115.55 236.059 1114.92 236.182 1114.6 236.691C1114.27 237.201 1114.38 237.905 1114.83 238.274Z" fill="white"/>
<path d="M1050.75 190.999C1051.05 191.245 1051.47 191.175 1051.7 190.823C1051.91 190.489 1051.85 190.015 1051.54 189.769C1051.24 189.522 1050.82 189.593 1050.59 189.944C1050.38 190.278 1050.43 190.753 1050.75 190.999Z" fill="white"/>
<path d="M1023.07 197.259C1023.51 197.259 1023.86 196.837 1023.86 196.327C1023.86 195.817 1023.48 195.431 1023.04 195.448C1022.6 195.448 1022.25 195.87 1022.25 196.38C1022.25 196.89 1022.63 197.277 1023.07 197.259Z" fill="white"/>
<path d="M1159.66 183.021C1159.66 183.654 1160.12 184.163 1160.68 184.163C1161.24 184.163 1161.7 183.654 1161.7 183.021C1161.7 182.388 1161.24 181.878 1160.68 181.878C1160.12 181.878 1159.66 182.388 1159.66 183.021Z" fill="white"/>
<path d="M1196.23 261.922C1196.23 263.187 1197.14 264.207 1198.27 264.207C1199.39 264.207 1200.31 263.187 1200.31 261.922C1200.31 260.656 1199.39 259.636 1198.27 259.636C1197.14 259.636 1196.23 260.656 1196.23 261.922Z" fill="white"/>
</g>
<g opacity="0.64">
<path d="M682.566 42.8523C682.443 43.2566 682.636 43.6786 683.005 43.8192C683.357 43.9599 683.743 43.7313 683.866 43.3269C683.989 42.9226 683.796 42.5007 683.427 42.36C683.075 42.2194 682.689 42.4479 682.566 42.8523Z" fill="white"/>
<path d="M665.872 0.342601C665.802 0.606311 665.925 0.9052 666.154 0.993103C666.382 1.08101 666.646 0.940347 666.734 0.676638C666.804 0.412928 666.681 0.114066 666.452 0.0261631C666.206 -0.06174 665.96 0.0788921 665.872 0.342601Z" fill="white"/>
<path d="M639.034 67.6084C638.771 67.3095 638.331 67.3271 638.068 67.6084C637.804 67.9073 637.804 68.3996 638.068 68.6809C638.331 68.9797 638.771 68.9622 639.034 68.6809C639.298 68.382 639.298 67.8897 639.034 67.6084Z" fill="white"/>
<path d="M164.549 141.517C164.373 141.324 164.092 141.324 163.916 141.517C163.74 141.71 163.74 142.045 163.916 142.238C164.092 142.431 164.373 142.431 164.549 142.238C164.725 142.045 164.725 141.71 164.549 141.517Z" fill="white"/>
<path d="M716.462 93.8368C715.935 93.7665 715.443 94.1884 715.372 94.7862C715.302 95.3839 715.689 95.9465 716.216 96.0168C716.743 96.0871 717.235 95.6652 717.305 95.0674C717.376 94.4697 716.989 93.9071 716.462 93.8368Z" fill="white"/>
</g>
<g opacity="0.64">
<path d="M55.1397 215.373C54.8761 215.672 54.8586 216.146 55.1397 216.445C55.4033 216.744 55.825 216.762 56.1062 216.445C56.3698 216.146 56.3874 215.672 56.1062 215.373C55.825 215.074 55.4209 215.056 55.1397 215.373Z" fill="white"/>
<path d="M57.7019 168.992C57.5262 169.185 57.5262 169.519 57.7019 169.713C57.8777 169.906 58.1589 169.924 58.3346 169.713C58.5104 169.519 58.5104 169.203 58.3346 168.992C58.1589 168.781 57.8777 168.781 57.7019 168.992Z" fill="white"/>
<path d="M6.3752 214.77C6.25219 214.365 5.88317 214.154 5.51415 214.278C5.16269 214.401 4.96939 214.84 5.07483 215.244C5.19784 215.649 5.56685 215.86 5.93588 215.737C6.28733 215.614 6.48063 215.174 6.3752 214.77Z" fill="white"/>
<path d="M0.869862 118.517C0.79957 118.254 0.535966 118.113 0.307519 118.201C0.0790727 118.289 -0.0614625 118.57 0.0264015 118.852C0.0966927 119.115 0.36019 119.256 0.588637 119.168C0.817083 119.08 0.957726 118.799 0.869862 118.517Z" fill="white"/>
<path d="M64.3803 278.205C63.941 277.853 63.3259 277.994 63.0272 278.486C62.7284 278.978 62.8339 279.664 63.2732 280.016C63.7125 280.367 64.3275 280.226 64.6263 279.734C64.925 279.242 64.8196 278.556 64.3803 278.205Z" fill="white"/>
</g>
<g opacity="0.64">
<path d="M628.118 249.055C628.399 249.354 628.874 249.424 629.173 249.178C629.471 248.949 629.489 248.51 629.19 248.193C628.909 247.894 628.435 247.824 628.136 248.07C627.837 248.299 627.82 248.738 628.118 249.055Z" fill="white"/>
<path d="M582.908 241.406C583.101 241.617 583.417 241.652 583.611 241.494C583.804 241.336 583.822 241.037 583.611 240.844C583.417 240.633 583.101 240.597 582.908 240.756C582.715 240.914 582.697 241.213 582.908 241.406Z" fill="white"/>
<path d="M627.019 298.949C626.632 299.019 626.404 299.388 626.527 299.775C626.65 300.162 627.072 300.39 627.458 300.32C627.845 300.25 628.073 299.88 627.95 299.494C627.827 299.107 627.406 298.878 627.019 298.949Z" fill="white"/>
<path d="M533.083 294.133C532.82 294.186 532.679 294.432 532.767 294.678C532.855 294.924 533.136 295.1 533.382 295.047C533.646 294.994 533.786 294.748 533.698 294.502C533.61 294.256 533.329 294.08 533.083 294.133Z" fill="white"/>
<path d="M689.512 246.419C689.178 246.841 689.284 247.473 689.776 247.843C690.268 248.212 690.935 248.177 691.269 247.755C691.603 247.333 691.498 246.7 691.006 246.331C690.514 245.962 689.846 245.997 689.512 246.419Z" fill="white"/>
</g>
<g opacity="0.64">
<path d="M410.437 295.901C410.174 296.2 410.156 296.674 410.437 296.973C410.718 297.272 411.123 297.29 411.404 296.973C411.667 296.674 411.685 296.2 411.404 295.901C411.14 295.602 410.718 295.584 410.437 295.901Z" fill="white"/>
<path d="M412.983 249.52C412.807 249.713 412.807 250.03 412.983 250.241C413.158 250.434 413.439 250.452 413.615 250.241C413.791 250.047 413.791 249.713 413.615 249.52C413.439 249.326 413.158 249.309 412.983 249.52Z" fill="white"/>
<path d="M359.403 284.103C359.28 283.699 358.911 283.488 358.541 283.611C358.19 283.734 357.997 284.173 358.102 284.578C358.225 284.982 358.594 285.193 358.963 285.07C359.315 284.947 359.508 284.507 359.403 284.103Z" fill="white"/>
<path d="M356.158 199.064C356.087 198.8 355.824 198.66 355.595 198.748C355.367 198.835 355.226 199.117 355.314 199.398C355.385 199.662 355.648 199.802 355.877 199.714C356.105 199.627 356.246 199.345 356.158 199.064Z" fill="white"/>
<path d="M399.429 338.597C398.99 338.245 398.374 338.386 398.076 338.878C397.777 339.371 397.882 340.056 398.322 340.408C398.761 340.759 399.376 340.619 399.675 340.127C399.974 339.634 399.868 338.949 399.429 338.597Z" fill="white"/>
</g>
<g opacity="0.64">
<path d="M540.859 180.147C540.807 180.499 541.018 180.815 541.316 180.886C541.615 180.939 541.914 180.71 541.967 180.376C542.019 180.024 541.808 179.708 541.51 179.638C541.211 179.567 540.912 179.813 540.859 180.147Z" fill="white"/>
<path d="M524.417 175.895C524.381 176.124 524.522 176.334 524.715 176.387C524.926 176.422 525.119 176.264 525.155 176.036C525.19 175.807 525.049 175.596 524.856 175.543C524.645 175.508 524.452 175.666 524.417 175.895Z" fill="white"/>
<path d="M482.415 176.193C481.958 175.824 481.326 175.947 481.01 176.457C480.676 176.967 480.781 177.67 481.238 178.039C481.695 178.408 482.327 178.285 482.644 177.776C482.978 177.266 482.872 176.562 482.415 176.193Z" fill="white"/>
<path d="M501.534 149.627C501.236 149.381 500.814 149.452 500.585 149.803C500.375 150.137 500.427 150.612 500.744 150.858C501.042 151.104 501.464 151.034 501.693 150.682C501.921 150.331 501.851 149.874 501.534 149.627Z" fill="white"/>
<path d="M585.412 230.623C584.972 230.623 584.621 231.045 584.621 231.555C584.621 232.064 585.007 232.451 585.447 232.434C585.886 232.434 586.237 232.012 586.237 231.502C586.237 230.992 585.851 230.605 585.412 230.623Z" fill="white"/>
<path d="M452.216 291.28C451.653 291.28 451.197 290.768 451.197 290.137C451.197 289.506 451.653 288.994 452.216 288.994C452.779 288.994 453.235 289.506 453.235 290.137C453.235 290.768 452.779 291.28 452.216 291.28Z" fill="white"/>
<path d="M401.01 152.529C401.01 151.263 400.096 150.244 398.971 150.244C397.847 150.244 396.933 151.263 396.933 152.529C396.933 153.795 397.847 154.815 398.971 154.815C400.096 154.815 401.01 153.795 401.01 152.529Z" fill="white"/>
</g>
<g opacity="0.64">
<path d="M1135.43 434.72C1135.34 434.386 1135.03 434.157 1134.73 434.228C1134.43 434.298 1134.25 434.614 1134.34 434.948C1134.43 435.283 1134.74 435.511 1135.04 435.441C1135.34 435.37 1135.52 435.054 1135.43 434.72Z" fill="white"/>
<path d="M1152.23 432.154C1152.17 431.926 1151.96 431.785 1151.75 431.82C1151.54 431.855 1151.44 432.084 1151.49 432.312C1151.54 432.541 1151.75 432.682 1151.96 432.646C1152.17 432.611 1152.28 432.383 1152.23 432.154Z" fill="white"/>
<path d="M1190.69 415.384C1191.25 415.542 1191.78 415.19 1191.89 414.592C1191.99 413.995 1191.61 413.379 1191.04 413.221C1190.48 413.063 1189.95 413.415 1189.85 414.012C1189.74 414.61 1190.13 415.225 1190.69 415.384Z" fill="white"/>
<path d="M1183.68 447.293C1184.05 447.398 1184.42 447.17 1184.47 446.766C1184.54 446.361 1184.28 445.957 1183.91 445.851C1183.54 445.746 1183.17 445.974 1183.12 446.379C1183.05 446.783 1183.31 447.187 1183.68 447.293Z" fill="white"/>
<path d="M1074.45 405.89C1074.86 405.697 1075.02 405.187 1074.8 404.73C1074.59 404.273 1074.1 404.062 1073.7 404.237C1073.29 404.431 1073.14 404.941 1073.35 405.398C1073.56 405.855 1074.05 406.066 1074.45 405.89Z" fill="white"/>
<path d="M1172.24 299.226C1172.48 299.806 1173.12 300.105 1173.63 299.877C1174.14 299.648 1174.36 299.015 1174.1 298.435C1173.84 297.855 1173.22 297.556 1172.71 297.785C1172.2 298.013 1171.97 298.646 1172.24 299.226Z" fill="white"/>
</g>
<g opacity="0.64">
<path d="M517.902 416.221C517.762 415.465 517.235 414.955 516.743 415.113C516.251 415.254 515.952 416.01 516.11 416.766C516.268 417.522 516.778 418.031 517.27 417.873C517.762 417.715 518.06 416.977 517.902 416.221Z" fill="white"/>
<path d="M545.442 410.435C545.354 409.925 545.003 409.591 544.669 409.697C544.335 409.802 544.142 410.295 544.247 410.805C544.335 411.314 544.686 411.648 545.02 411.543C545.354 411.437 545.547 410.945 545.442 410.435Z" fill="white"/>
<path d="M608.547 372.412C609.461 372.781 610.339 371.972 610.497 370.619C610.656 369.265 610.041 367.876 609.127 367.507C608.213 367.138 607.334 367.946 607.176 369.3C607.018 370.654 607.633 372.043 608.547 372.412Z" fill="white"/>
<path d="M597.038 444.735C597.653 444.981 598.233 444.436 598.338 443.54C598.444 442.643 598.039 441.711 597.424 441.465C596.809 441.219 596.229 441.764 596.124 442.661C596.019 443.557 596.423 444.489 597.038 444.735Z" fill="white"/>
<path d="M324.787 388.321C325.455 387.899 325.718 386.721 325.367 385.684C325.015 384.646 324.207 384.154 323.539 384.576C322.871 384.998 322.608 386.176 322.959 387.213C323.311 388.25 324.119 388.743 324.787 388.321Z" fill="white"/>
<path d="M578.271 109.158C578.676 110.476 579.695 111.127 580.538 110.635C581.382 110.142 581.733 108.666 581.329 107.347C580.925 106.028 579.906 105.378 579.062 105.87C578.219 106.363 577.867 107.839 578.271 109.158Z" fill="white"/>
</g>
<g opacity="0.64">
<path d="M814.739 307.401C815.038 307.207 815.143 306.838 814.985 306.575C814.827 306.311 814.458 306.24 814.159 306.434C813.86 306.627 813.755 306.996 813.913 307.26C814.071 307.524 814.44 307.594 814.739 307.401Z" fill="white"/>
<path d="M822.451 322.468C822.645 322.345 822.715 322.099 822.61 321.923C822.504 321.748 822.258 321.712 822.065 321.836C821.872 321.959 821.801 322.205 821.907 322.381C822.012 322.556 822.258 322.591 822.451 322.468Z" fill="white"/>
<path d="M850.571 353.514C850.589 354.094 851.098 354.481 851.696 354.393C852.293 354.305 852.768 353.743 852.732 353.162C852.715 352.582 852.205 352.196 851.608 352.283C851.01 352.371 850.536 352.934 850.571 353.514Z" fill="white"/>
<path d="M817.919 356.926C817.919 357.313 818.27 357.577 818.674 357.507C819.079 357.436 819.377 357.085 819.377 356.698C819.377 356.311 819.026 356.047 818.622 356.118C818.218 356.188 817.919 356.54 817.919 356.926Z" fill="white"/>
<path d="M823.04 240.752C823.338 241.069 823.901 241.069 824.27 240.717C824.639 240.383 824.691 239.838 824.393 239.504C824.094 239.187 823.532 239.188 823.163 239.539C822.794 239.873 822.741 240.418 823.04 240.752Z" fill="white"/>
<path d="M955.564 299.561C955.089 299.983 955.001 300.651 955.37 301.073C955.74 301.495 956.425 301.495 956.899 301.073C957.374 300.651 957.462 299.983 957.093 299.561C956.724 299.139 956.038 299.139 955.564 299.561Z" fill="white"/>
</g>
<g opacity="0.64">
<path d="M211.609 375.843C211.521 375.509 211.205 375.28 210.906 375.351C210.607 375.421 210.432 375.737 210.519 376.072C210.607 376.406 210.924 376.634 211.222 376.564C211.521 376.493 211.697 376.177 211.609 375.843Z" fill="white"/>
<path d="M228.404 373.295C228.351 373.067 228.14 372.926 227.929 372.961C227.718 372.997 227.613 373.225 227.666 373.454C227.718 373.682 227.929 373.823 228.14 373.788C228.351 373.752 228.456 373.524 228.404 373.295Z" fill="white"/>
<path d="M266.871 356.502C267.434 356.66 267.961 356.308 268.066 355.711C268.172 355.113 267.785 354.498 267.223 354.339C266.661 354.181 266.133 354.533 266.028 355.131C265.923 355.728 266.309 356.344 266.871 356.502Z" fill="white"/>
<path d="M150.639 347.012C151.043 346.818 151.202 346.309 150.991 345.851C150.78 345.394 150.288 345.183 149.884 345.359C149.479 345.553 149.321 346.062 149.532 346.52C149.743 346.977 150.235 347.188 150.639 347.012Z" fill="white"/>
<path d="M678.659 83.8652C678.905 84.4453 679.537 84.7442 680.047 84.5157C680.556 84.2871 680.785 83.6542 680.521 83.0741C680.258 82.4939 679.643 82.1951 679.133 82.4236C678.623 82.6522 678.395 83.285 678.659 83.8652Z" fill="white"/>
</g>
<path d="M882.806 200.423C882.296 199.28 881.066 198.823 880.047 199.403C879.028 199.983 878.624 201.372 879.133 202.515C879.643 203.657 880.873 204.114 881.892 203.534C882.911 202.954 883.316 201.565 882.806 200.423Z" fill="white"/>
<path d="M736.143 201.777C736.864 201.777 737.426 201.109 737.426 200.3C737.426 199.491 736.829 198.858 736.126 198.858C735.405 198.858 734.843 199.526 734.843 200.335C734.843 201.144 735.44 201.777 736.143 201.777Z" fill="white"/>
<path d="M874.429 247.645C874.903 247.645 875.29 247.206 875.272 246.661C875.272 246.133 874.868 245.694 874.393 245.711C873.919 245.711 873.532 246.151 873.55 246.696C873.55 247.223 873.954 247.663 874.429 247.645Z" fill="white"/>
<path d="M708.375 29.8211C707.69 28.2916 706.02 27.6763 704.667 28.4499C703.297 29.2234 702.752 31.1045 703.455 32.634C704.14 34.1636 705.81 34.7789 707.163 34.0053C708.533 33.2318 709.078 31.3682 708.375 29.8211Z" fill="white"/>
<path d="M582.444 254.852C581.987 253.832 580.88 253.428 579.966 253.938C579.052 254.447 578.701 255.696 579.158 256.715C579.615 257.735 580.722 258.139 581.635 257.63C582.549 257.12 582.901 255.871 582.444 254.852Z" fill="white"/>
<path d="M440.426 381.643C440.953 381.643 441.375 381.151 441.375 380.553C441.375 379.955 440.935 379.48 440.408 379.48C439.881 379.48 439.459 379.973 439.459 380.57C439.459 381.168 439.899 381.643 440.426 381.643Z" fill="white"/>
<path d="M499.619 202.078C500.638 202.078 501.446 201.128 501.429 199.985C501.429 198.843 500.585 197.929 499.566 197.946C498.547 197.964 497.738 198.895 497.756 200.038C497.756 201.181 498.599 202.095 499.619 202.078Z" fill="white"/>
<path d="M160.498 263.505C160.973 263.083 161.061 262.309 160.692 261.782C160.323 261.254 159.637 261.149 159.163 261.571C158.689 261.993 158.601 262.766 158.97 263.294C159.339 263.821 160.024 263.927 160.498 263.505Z" fill="white"/>
<path d="M323.303 504.249C323.83 504.249 324.252 503.757 324.252 503.159C324.252 502.561 323.812 502.087 323.285 502.087C322.758 502.087 322.336 502.579 322.336 503.177C322.336 503.774 322.775 504.249 323.303 504.249Z" fill="white"/>
<path d="M368.425 314.133C369.444 314.133 370.253 313.184 370.235 312.041C370.235 310.898 369.392 309.984 368.372 310.001C367.353 310.019 366.545 310.951 366.562 312.094C366.562 313.236 367.406 314.15 368.425 314.133Z" fill="white"/>
<path d="M43.3585 386.11C43.8329 385.688 43.9208 384.914 43.5517 384.387C43.1827 383.859 42.4974 383.754 42.0229 384.176C41.5484 384.598 41.4606 385.371 41.8296 385.899C42.1987 386.426 42.884 386.532 43.3585 386.11Z" fill="white"/>
</svg>
