<?xml version="1.0" standalone="no"?>
<!DOCTYPE svg PUBLIC "-//W3C//DTD SVG 20010904//EN"
 "http://www.w3.org/TR/2001/REC-SVG-20010904/DTD/svg10.dtd">
<svg version="1.0" xmlns="http://www.w3.org/2000/svg"
 width="1200.000000pt" height="1000.000000pt" viewBox="0 0 1200.000000 1000.000000"
 preserveAspectRatio="xMidYMid meet">

<g transform="translate(0.000000,1000.000000) scale(0.100000,-0.100000)"
fill="#000000" stroke="none">
<path d="M3605 7889 c-38 -11 -108 -38 -155 -60 -260 -122 -480 -316 -879
-774 -192 -221 -421 -549 -603 -865 -121 -211 -297 -552 -338 -654 -76 -192
-69 -363 22 -555 34 -71 56 -101 137 -182 83 -84 108 -103 191 -142 126 -61
192 -77 321 -78 266 -1 397 56 969 423 270 173 373 233 430 249 66 19 285 16
395 -5 355 -69 723 -249 905 -443 36 -38 75 -90 88 -116 13 -25 61 -183 108
-349 108 -383 183 -617 234 -726 22 -47 39 -86 38 -87 -2 -2 -100 2 -218 7
-309 14 -1414 3 -1677 -16 -729 -53 -1155 -137 -1269 -251 -28 -28 -32 -79 -9
-112 39 -56 190 -123 398 -178 285 -74 290 -75 752 -51 114 6 257 12 500 21
61 2 160 7 220 10 144 7 343 15 480 20 136 5 320 13 445 20 52 3 151 8 220 10
69 3 172 7 230 9 58 3 173 7 255 11 83 3 195 8 250 11 55 3 152 7 215 9 146 6
301 13 410 19 47 3 162 7 255 10 182 6 342 13 495 22 52 2 163 7 245 10 218 8
244 9 250 16 10 10 -56 45 -151 82 -165 64 -503 138 -839 186 -82 11 -160 23
-173 26 l-23 5 20 32 c68 112 207 645 280 1082 107 634 105 1412 -3 1786 -46
159 -136 337 -206 409 -134 138 -473 339 -699 415 -277 93 -419 67 -594 -107
-49 -48 -97 -88 -107 -88 -44 0 -480 167 -512 197 -14 12 -18 32 -18 87 0 244
-82 374 -306 488 -60 31 -136 65 -169 76 -68 23 -304 78 -380 88 -27 4 -59 9
-70 11 -11 2 -81 6 -155 9 -115 3 -145 1 -205 -17z m201 -306 c-10 -11 -56
-11 -56 -1 0 4 14 8 32 8 17 0 28 -3 24 -7z m-106 -14 c-25 -5 -54 -13 -65
-18 -11 -5 -36 -16 -56 -25 -45 -19 -206 -133 -267 -188 -123 -111 -361 -358
-442 -458 -19 -24 -40 -48 -45 -54 -28 -29 -89 -109 -79 -103 6 3 21 0 35 -7
13 -7 29 -14 34 -17 6 -2 9 -7 8 -11 -2 -4 3 -5 11 -2 7 3 20 -2 29 -10 8 -8
17 -12 21 -9 3 4 6 0 6 -7 0 -7 3 -11 6 -7 4 3 13 -1 21 -9 8 -8 18 -12 23 -9
4 3 11 -2 14 -11 4 -9 9 -14 12 -11 4 3 13 0 21 -8 8 -8 23 -15 34 -15 13 0
18 -4 13 -12 -5 -10 -4 -10 6 -1 7 6 39 78 72 159 70 178 86 198 145 191 40
-4 247 -77 240 -84 -2 -1 -54 15 -116 37 -61 22 -121 40 -132 40 -38 0 -74
-55 -132 -203 -58 -147 -67 -198 -43 -230 8 -10 72 -43 142 -73 71 -30 132
-59 136 -63 4 -3 -13 -60 -37 -125 -25 -66 -45 -135 -45 -157 0 -34 4 -41 43
-63 60 -35 310 -126 345 -126 16 0 36 8 45 18 17 19 117 243 117 262 0 5 6 10
13 10 25 0 260 -87 250 -93 -5 -4 -56 11 -112 33 -56 21 -100 33 -98 27 2 -7
8 -12 13 -13 28 -2 114 -44 114 -56 0 -4 9 -8 20 -8 11 0 29 -9 39 -19 11 -11
22 -17 25 -14 3 3 8 -1 12 -10 3 -9 14 -14 25 -12 11 2 17 0 14 -6 -4 -5 0 -9
8 -9 8 0 27 -10 43 -22 15 -13 24 -17 20 -9 -8 12 42 -15 54 -29 5 -7 38 -22
56 -25 7 -2 22 -13 33 -24 12 -12 26 -19 31 -16 6 4 22 -3 36 -14 15 -12 33
-21 41 -21 7 0 16 -7 19 -15 4 -8 10 -13 14 -10 5 3 11 1 15 -5 4 -6 11 -8 16
-5 5 4 9 1 9 -4 0 -6 7 -11 15 -11 8 0 15 -4 15 -10 0 -5 6 -7 14 -4 7 3 16
-2 20 -11 4 -10 12 -15 22 -11 8 3 12 2 9 -4 -3 -6 1 -10 9 -10 9 0 16 -5 16
-12 0 -6 3 -9 6 -5 7 6 96 -37 136 -66 14 -11 31 -16 37 -13 6 4 11 2 11 -4 0
-10 48 -35 63 -32 4 1 7 -3 7 -9 0 -5 4 -8 9 -5 5 4 11 3 13 -1 4 -10 88 -56
88 -49 0 3 9 -2 20 -12 12 -9 23 -15 27 -14 3 2 9 0 12 -5 9 -12 83 -48 93
-45 4 1 8 -2 8 -8 0 -5 17 -17 38 -27 20 -9 39 -19 42 -22 3 -4 23 -14 45 -25
22 -10 53 -25 69 -33 33 -18 38 -13 58 50 14 45 69 112 110 133 40 21 62 26
131 31 133 11 256 -102 274 -249 6 -54 -25 -157 -58 -194 -20 -21 -26 -50 -9
-39 6 3 10 2 10 -2 0 -5 42 -29 93 -53 50 -25 96 -51 100 -58 5 -7 12 -10 18
-7 5 4 9 1 9 -5 0 -7 6 -10 14 -7 8 3 20 -1 27 -10 11 -12 45 -31 69 -38 31
-8 50 -18 50 -26 0 -6 5 -7 10 -4 6 3 10 3 10 -2 0 -4 25 -19 55 -32 30 -14
52 -28 50 -32 -7 -10 25 -20 37 -12 6 3 8 1 4 -5 -3 -6 6 -13 23 -17 17 -3 42
-15 56 -26 14 -11 25 -18 25 -14 0 4 7 -1 16 -9 8 -9 22 -16 30 -16 8 0 14 -5
14 -11 0 -5 4 -7 10 -4 6 3 10 1 10 -5 0 -6 5 -8 10 -5 6 4 23 -5 37 -19 14
-15 28 -25 30 -23 4 5 29 145 38 217 23 174 33 395 30 695 -2 182 -6 359 -9
395 l-5 65 9 -55 c5 -30 12 -201 16 -380 7 -363 -7 -598 -51 -880 -69 -446
-210 -1008 -275 -1103 -33 -48 -119 -104 -186 -122 -77 -20 -179 -20 -234 0
-25 9 -50 17 -57 18 -34 8 -117 72 -158 124 -96 121 -136 221 -256 648 -153
544 -168 583 -254 695 -101 131 -301 292 -466 376 -190 95 -546 219 -707 245
-142 23 -336 25 -453 4 -148 -26 -194 -48 -524 -262 -554 -358 -651 -405 -835
-407 -71 -1 -108 4 -145 18 -127 48 -218 142 -255 264 -27 87 -25 129 10 220
73 190 361 711 543 982 273 408 709 885 982 1072 117 81 200 118 260 117 23
-1 20 -3 -15 -10z m198 4 c-10 -2 -28 -2 -40 0 -13 2 -5 4 17 4 22 1 32 -1 23
-4z m181 -23 c8 0 12 -3 9 -6 -8 -7 -168 18 -168 27 0 3 33 0 73 -7 39 -8 78
-14 86 -14z m114 -27 c40 -9 68 -18 62 -19 -5 -2 -44 5 -85 15 -93 23 -75 27
23 4z m180 -55 c26 -11 46 -23 44 -25 -3 -2 -20 3 -38 11 -19 8 -52 22 -74 31
-31 12 -33 14 -10 10 17 -4 52 -16 78 -27z m140 -80 c20 -16 37 -34 37 -39 0
-5 -15 5 -32 22 -18 17 -45 37 -60 45 -16 8 -28 17 -28 20 0 8 42 -17 83 -48z
m44 -105 c-3 -10 -5 -2 -5 17 0 19 2 27 5 18 2 -10 2 -26 0 -35z m32 -239 c21
-77 77 -143 159 -185 25 -13 29 -18 12 -13 -68 16 -157 112 -180 192 -6 20
-13 80 -15 132 l-4 95 9 -90 c4 -49 13 -108 19 -131z m-824 81 c26 -13 26 -14
5 -9 -14 3 -32 8 -41 10 -35 10 -68 -15 -98 -73 -37 -71 -40 -64 -6 12 32 73
75 91 140 60z m141 -45 c15 -6 24 -13 22 -16 -3 -3 -21 2 -39 10 -39 16 -24
21 17 6z m142 -64 c52 -27 65 -51 59 -103 -3 -27 -15 -68 -27 -93 -11 -25 -19
-38 -16 -29 2 8 12 43 21 77 22 79 15 105 -38 136 -45 27 -44 35 1 12z m-482
-122 c-16 -38 -31 -60 -43 -62 -17 -3 -17 -2 0 8 9 6 17 15 17 20 0 15 40 103
45 98 3 -3 -6 -31 -19 -64z m156 -76 c-49 -133 -74 -176 -109 -184 -28 -7
-125 17 -227 57 -43 16 -79 29 -81 27 -1 -2 -12 -31 -23 -66 l-21 -63 27 -10
c232 -86 272 -112 272 -175 0 -20 -4 -44 -10 -54 -15 -28 -4 -42 54 -72 l54
-27 6 25 c4 13 23 42 42 64 48 52 71 52 218 -5 64 -25 120 -45 124 -45 11 0
53 123 45 131 -5 3 -43 19 -85 34 -43 15 -78 32 -78 36 0 5 2 9 4 9 3 0 76
-27 158 -59 l26 -10 -30 -81 c-25 -64 -34 -80 -47 -74 -9 3 -71 27 -139 52
-120 45 -123 45 -156 29 -31 -14 -39 -28 -85 -149 -29 -73 -54 -134 -55 -136
-5 -4 -139 47 -149 57 -5 5 14 70 43 145 69 186 71 183 -161 268 -49 18 -89
39 -89 45 0 12 47 143 54 150 1 2 62 -19 134 -47 72 -27 139 -50 149 -50 41 0
62 31 114 165 29 74 56 135 60 135 4 0 -14 -55 -39 -122z m144 -68 c-25 -67
-46 -131 -46 -142 0 -24 18 -59 39 -76 13 -11 14 -13 1 -9 -8 2 -25 18 -36 35
-27 39 -22 68 30 202 21 52 38 103 39 112 1 11 5 14 10 9 6 -6 -10 -59 -37
-131z m2014 111 c-62 -7 -93 -26 -161 -97 -108 -115 -177 -154 -270 -155 -33
-1 -63 2 -66 5 -4 3 22 6 56 6 92 0 150 32 276 151 l106 99 57 -1 57 -2 -55
-6z m87 -7 c-3 -3 -12 -4 -19 -1 -8 3 -5 6 6 6 11 1 17 -2 13 -5z m-1064 -61
c21 -9 36 -17 35 -19 -6 -6 -128 42 -140 55 -9 8 1 7 27 -4 22 -9 57 -24 78
-32z m1167 27 c8 -5 11 -10 5 -10 -5 0 -17 5 -25 10 -8 5 -10 10 -5 10 6 0 17
-5 25 -10z m99 -46 c14 -12 -19 -1 -35 12 -18 14 -18 14 6 3 14 -6 27 -13 29
-15z m-2129 -63 c-25 -65 -25 -65 8 -79 25 -10 25 -11 2 -5 -42 9 -44 19 -20
83 12 33 24 59 27 57 2 -3 -5 -28 -17 -56z m2323 -43 c26 -17 47 -32 47 -35 0
-3 -10 1 -22 9 -13 9 -65 39 -115 68 -51 29 -93 54 -93 57 0 6 115 -57 183
-99z m-1353 82 c8 -5 11 -10 5 -10 -5 0 -17 5 -25 10 -8 5 -10 10 -5 10 6 0
17 -5 25 -10z m217 -80 c43 -16 71 -29 63 -30 -16 0 -171 57 -180 67 -7 7 22
-2 117 -37z m140 -46 c-3 -3 -12 -4 -19 -1 -8 3 -5 6 6 6 11 1 17 -2 13 -5z
m-1257 -14 c8 -5 11 -10 5 -10 -5 0 -17 5 -25 10 -8 5 -10 10 -5 10 6 0 17 -5
25 -10z m2405 -44 c43 -33 48 -38 85 -81 14 -17 -2 -5 -35 25 -33 30 -74 65
-90 78 -17 13 -23 20 -15 16 8 -4 33 -21 55 -38z m-2325 14 c8 -5 11 -10 5
-10 -5 0 -17 5 -25 10 -8 5 -10 10 -5 10 6 0 17 -5 25 -10z m88 -37 c36 -22
45 -53 32 -101 -6 -23 -12 -42 -14 -42 -2 0 -1 22 2 50 5 57 -3 71 -57 101
-26 14 -29 18 -11 13 14 -3 35 -13 48 -21z m-368 -33 c8 -5 11 -10 5 -10 -5 0
-17 5 -25 10 -8 5 -10 10 -5 10 6 0 17 -5 25 -10z m2746 -111 c14 -28 24 -53
22 -55 -2 -2 -16 21 -31 51 -15 30 -25 55 -22 55 3 0 16 -23 31 -51z m-2377
-48 c-6 -18 -13 -30 -15 -28 -2 2 1 18 7 36 6 18 13 30 15 28 2 -2 -1 -18 -7
-36z m1769 -9 c7 -5 -14 -6 -47 -4 -97 7 -173 -30 -233 -112 -35 -49 -37 -35
-2 15 25 37 74 75 124 97 29 13 139 15 158 4z m85 -43 c56 -37 85 -75 103
-136 30 -98 11 -183 -57 -257 -67 -74 -123 -94 -239 -85 -19 1 4 5 52 9 73 6
92 11 126 36 41 30 82 75 99 109 19 37 25 114 13 172 -13 63 -67 130 -129 163
-20 11 -31 19 -25 20 6 0 32 -14 57 -31z m566 -19 c0 -9 -4 -8 -9 5 -5 11 -9
27 -9 35 0 9 4 8 9 -5 5 -11 9 -27 9 -35z m-2460 -34 c-12 -31 -24 -55 -26
-53 -2 2 6 30 18 61 12 31 24 55 26 53 2 -2 -6 -30 -18 -61z m2491 -87 c11
-52 19 -107 19 -124 -1 -16 -9 15 -19 70 -10 55 -21 114 -25 130 -4 17 -5 27
-1 24 4 -4 16 -49 26 -100z m-2530 -15 c-17 -43 -50 -74 -79 -74 -24 0 -24 1
9 18 20 9 44 33 55 54 23 43 30 44 15 2z m1848 5 c21 -21 32 -40 31 -58 l-2
-26 -4 25 c-13 72 -100 104 -149 55 -29 -29 -36 -31 -28 -10 9 22 53 44 90 45
21 0 40 -10 62 -31z m-327 -50 c-5 -26 -9 -34 -10 -19 -1 27 9 73 15 67 2 -2
0 -23 -5 -48z m-221 -6 c68 -25 104 -52 140 -105 28 -40 34 -59 38 -120 3 -62
1 -81 -21 -128 -30 -67 -77 -117 -136 -143 -53 -23 -126 -30 -164 -14 -25 11
-18 12 56 12 79 0 87 2 134 34 80 55 122 132 122 226 1 54 -26 125 -62 163
-57 62 -187 96 -273 73 -52 -14 -128 -80 -150 -131 -22 -49 -31 -46 -10 3 28
67 97 125 176 147 34 10 96 3 150 -17z m396 1 c-8 -20 19 -70 43 -84 45 -23
96 -8 119 35 6 11 12 14 12 7 0 -7 -11 -24 -25 -37 -29 -29 -83 -33 -120 -9
-25 16 -51 76 -40 94 10 16 18 12 11 -6z m-166 -61 c1 -55 72 -147 143 -185
17 -9 27 -17 21 -18 -22 0 -104 61 -128 97 -30 46 -59 123 -46 123 6 0 10 -8
10 -17z m-251 -122 c42 -40 43 -90 2 -132 -62 -61 -161 -19 -161 69 0 33 6 45
31 66 42 36 88 35 128 -3z m-292 -186 c23 -44 62 -84 108 -109 17 -10 22 -15
12 -12 -10 3 -23 6 -28 6 -19 0 -90 80 -109 123 -11 24 -21 67 -21 93 -3 84 4
92 11 14 4 -45 15 -91 27 -115z m1110 66 c6 -3 -25 -6 -70 -6 -76 0 -86 -2
-132 -33 -61 -41 -100 -93 -116 -156 -29 -118 30 -243 140 -292 22 -9 38 -21
35 -26 -7 -11 -68 25 -112 66 -49 45 -74 101 -79 176 -10 134 79 249 214 279
37 8 97 4 120 -8z m88 -40 c135 -111 148 -306 27 -412 -64 -56 -176 -90 -227
-69 -14 6 -2 9 40 9 105 2 203 65 241 156 21 50 21 148 1 196 -19 47 -72 105
-116 130 -26 14 -29 18 -11 13 14 -3 34 -14 45 -23z m-97 -144 c80 -85 6 -199
-102 -157 -35 13 -59 64 -52 106 13 69 108 100 154 51z m347 -2313 c-79 -72
-205 -147 -221 -131 -3 3 5 8 18 12 44 13 154 85 198 130 24 24 46 42 49 39 3
-2 -17 -25 -44 -50z m-245 -144 c0 -5 -8 -10 -17 -10 -15 0 -16 2 -3 10 19 12
20 12 20 0z m-131 -34 c-5 -5 -79 -9 -94 -5 -5 1 13 5 40 8 49 6 63 5 54 -3z
m-149 -6 c0 -5 -2 -10 -4 -10 -3 0 -8 5 -11 10 -3 6 -1 10 4 10 6 0 11 -4 11
-10z"/>
<path d="M3835 6150 c3 -5 8 -10 11 -10 2 0 4 5 4 10 0 6 -5 10 -11 10 -5 0
-7 -4 -4 -10z"/>
<path d="M5609 5537 c-242 -68 -248 -414 -8 -489 69 -22 93 -22 158 -1 182 58
236 286 100 422 -66 66 -163 92 -250 68z m138 -183 c22 -22 25 -32 20 -72 -7
-62 -44 -97 -96 -88 -45 7 -80 42 -87 87 -5 28 -1 41 21 67 23 27 33 32 71 32
35 0 51 -6 71 -26z"/>
<path d="M5619 5342 c-39 -51 -18 -108 50 -130 31 -11 35 -10 62 19 37 39 38
81 4 115 -33 33 -88 31 -116 -4z"/>
<path d="M5369 5917 c-37 -28 -50 -87 -26 -118 16 -21 51 -39 77 -39 27 0 80
52 80 79 0 68 -81 117 -131 78z"/>
<path d="M6171 5591 c-36 -34 -40 -67 -11 -104 30 -38 81 -45 120 -17 25 18
30 28 30 61 0 82 -79 116 -139 60z"/>
</g>
</svg>
